:version 1.10
:name ASF
:units
  mass 1
  length 1
  angle deg
:documentation
  ASF file generated by Kaydara
:root
  axis xyz
  order  tx ty tz rx ry rz
  position 0 0 0
  orientation 0 0 0
:bonedata
  begin
    id 1
    name SpineDummy
    direction 0.999998 -0.00179978 1.38929e-006
    length 3.60008
    axis 0 0 0 xyz
  end
  begin
    id 2
    name Spine
    direction 0.964365 0.262802 0.0305839
    length 8.13928
    axis 1.33928 -1.75354 15.2838 xyz
    dof rx ry rz
  end
  begin
    id 3
    name Spine1
    direction 0.811168 0.572065 0.12144
    length 7.14954
    axis 2.2224 -6.9761 35.2157 xyz
    dof rx ry rz
  end
  begin
    id 4
    name Neck
    direction 0 0 0
    length 0
    axis 2.2224 -6.9761 35.2157 xyz
    dof rx ry rz
  end
  begin
    id 5
    name HeadDummy
    direction 0.810939 0.572387 0.121455
    length 3.55534
    axis 2.2224 -6.9761 35.2157 xyz
  end
  begin
    id 6
    name Head
    direction 0.998226 -0.000232542 0.0595419
    length 7.35666
    axis -3.03688 -3.41352 -0.0133467 xyz
    dof rx ry rz
  end
  begin
    id 7
    name R_ClavicleDummy
    direction 0.531669 -0.194489 -0.824319
    length 2.49392
    axis 2.2224 -6.9761 35.2157 xyz
  end
  begin
    id 8
    name R_Clavicle
    direction -0.155119 0.0480802 -0.986725
    length 4.485
    axis -54.2764 80.6538 162.779 xyz
    dof rx ry rz
  end
  begin
    id 9
    name R_UpperArm
    direction -0.955567 0.200068 -0.216484
    length 10.1122
    axis -72.9943 12.5026 168.175 xyz
    dof rx ry rz
  end
  begin
    id 10
    name R_Forearm
    direction -0.61433 0.385743 0.688332
    length 9.39148
    axis -117.015 -43.4982 147.875 xyz
    dof rx ry rz
  end
  begin
    id 11
    name R_Hand
    direction -0.699429 0.0170333 0.714499
    length 3.66324
    axis -45.0303 -36.7097 175.478 xyz
    dof rx ry rz
  end
  begin
    id 12
    name L_ClavicleDummy
    direction 0.40287 -0.36502 0.839319
    length 2.49392
    axis 2.2224 -6.9761 35.2157 xyz
  end
  begin
    id 13
    name L_Clavicle
    direction -0.231271 -0.0726419 0.970174
    length 4.485
    axis 18.4357 -75.9711 -162.563 xyz
    dof rx ry rz
  end
  begin
    id 14
    name L_UpperArm
    direction -0.917494 0.144359 0.370629
    length 10.1122
    axis 56.0417 -21.7544 171.058 xyz
    dof rx ry rz
  end
  begin
    id 15
    name L_Forearm
    direction -0.496786 0.615074 -0.612281
    length 9.39148
    axis 89.8094 37.7546 128.927 xyz
    dof rx ry rz
  end
  begin
    id 16
    name L_Hand
    direction -0.409932 0.64962 -0.640274
    length 3.66324
    axis -0.424369 32.133 128.52 xyz
    dof rx ry rz
  end
  begin
    id 17
    name L_ThighDummy
    direction -1.84081e-006 1.87549e-006 1
    length 3.13049
    axis 0 0 0 xyz
  end
  begin
    id 18
    name L_Thigh
    direction -0.947739 0.307978 0.083308
    length 17.9961
    axis 173.219 -4.77873 161.998 xyz
    dof rx ry rz
  end
  begin
    id 19
    name L_Calf
    direction -0.728814 -0.684427 0.0197583
    length 13.3367
    axis 167.331 -1.13214 -136.799 xyz
    dof rx ry rz
  end
  begin
    id 20
    name L_Foot
    direction -0.9028 0.418719 0.0981191
    length 5.8674
    axis 163.436 11.5135 -155.37 xyz
    dof rx ry rz
  end
  begin
    id 21
    name L_Toe0
    direction -0.35341 0.886259 0.299411
    length 4.75286
    axis 169.316 -17.4222 111.74 xyz
    dof rx ry rz
  end
  begin
    id 22
    name R_ThighDummy
    direction 9.32778e-007 -8.82053e-007 -1
    length 3.13049
    axis 0 0 0 xyz
  end
  begin
    id 23
    name R_Thigh
    direction -0.925064 0.37528 -0.0585023
    length 17.9961
    axis -178.698 3.35385 157.919 xyz
    dof rx ry rz
  end
  begin
    id 24
    name R_Calf
    direction -0.68969 -0.718776 -0.0876886
    length 13.3367
    axis -160.504 5.03065 -133.817 xyz
    dof rx ry rz
  end
  begin
    id 25
    name R_Foot
    direction -0.857405 0.418858 -0.299022
    length 5.8674
    axis -161.328 4.38911 -154.413 xyz
    dof rx ry rz
  end
  begin
    id 26
    name R_Toe0
    direction -0.100745 0.952789 -0.286433
    length 4.75286
    axis 171.683 16.6445 96.0359 xyz
    dof rx ry rz
  end
:hierarchy
  begin
    root SpineDummy L_ThighDummy R_ThighDummy
    SpineDummy Spine
    Spine Spine1
    Spine1 Neck
    Neck HeadDummy R_ClavicleDummy L_ClavicleDummy
    HeadDummy Head
    R_ClavicleDummy R_Clavicle
    R_Clavicle R_UpperArm
    R_UpperArm R_Forearm
    R_Forearm R_Hand
    L_ClavicleDummy L_Clavicle
    L_Clavicle L_UpperArm
    L_UpperArm L_Forearm
    L_Forearm L_Hand
    L_ThighDummy L_Thigh
    L_Thigh L_Calf
    L_Calf L_Foot
    L_Foot L_Toe0
    R_ThighDummy R_Thigh
    R_Thigh R_Calf
    R_Calf R_Foot
    R_Foot R_Toe0
  end

:SAMPLES-PER-SECOND 30
:FULLY-SPECIFIED
:DEGREES
340
root  4.95427 30.4376 -45.4164 86.0321 8.60073 89.9324
Spine  -5.84532 -7.94195 -4.71415
Spine1  -2.96372 27.5551 6.13465
Neck  3.97569e-016 0 -2.38542e-015
Head  39.4047 -10.9753 7.16596
R_Clavicle  0.351417 -16.2084 0.868298
R_UpperArm  17.1796 4.39214 18.283
R_Forearm  35.6097 -9.56055 8.01912
R_Hand  -1.15604 4.96732 -19.8813
L_Clavicle  -0.288987 12.5452 -2.04612
L_UpperArm  -9.63962 -1.17044 7.9713
L_Forearm  -6.37697 28.5414 36.0191
L_Hand  -0.209204 -0.941577 -5.18381
L_Thigh  0.446683 5.16975 -27.5199
L_Calf  -6.9154 -1.69652 12.1913
L_Foot  1.79593 -4.27498 16.2859
L_Toe0  -1.23732 0.262784 7.82263
R_Thigh  -1.36616 -3.43047 4.82433
R_Calf  -8.70438 6.1006 19.6037
R_Foot  1.5364 2.89623 -8.10346
R_Toe0  -1.78857 -0.272761 -17.3239
341
root  4.43079 30.1497 -44.2959 85.0774 8.02195 87.6294
Spine  -5.13532 -2.83515 -4.39199
Spine1  -2.66815 24.7121 6.48224
Neck  3.97569e-016 0 -2.38542e-015
Head  38.3446 -10.4429 6.89638
R_Clavicle  0.319081 -15.775 0.406259
R_UpperArm  16.7435 3.33819 12.7325
R_Forearm  32.1713 -4.18245 3.45534
R_Hand  -1.02775 5.08988 -18.659
L_Clavicle  -0.267981 12.8429 -3.26792
L_UpperArm  -6.09313 3.30251 12.1514
L_Forearm  -5.89647 30.3219 36.5071
L_Hand  -0.200663 -0.239451 -4.27212
L_Thigh  1.99882 7.16819 -20.8925
L_Calf  -8.47817 0.29776 -2.41782
L_Foot  -0.326131 -3.08725 3.8068
L_Toe0  -7.53933 3.40979 21.8647
R_Thigh  0.658687 -0.744934 4.96427
R_Calf  -8.84103 4.87621 15.6717
R_Foot  1.08437 2.50656 -3.95661
R_Toe0  -1.78858 -0.272748 -17.324
342
root  3.89003 29.8674 -43.0598 84.4963 8.28985 85.732
Spine  -4.22597 1.19953 -3.90165
Spine1  -2.08392 21.9024 6.80051
Neck  3.97569e-016 0 -2.38542e-015
Head  36.6752 -10.0674 6.73111
R_Clavicle  0.296153 -14.2307 0.427898
R_UpperArm  14.0941 3.05037 5.86375
R_Forearm  26.3715 1.42068 -1.21096
R_Hand  -0.83832 5.55736 -16.9942
L_Clavicle  -0.320566 13.9444 -3.92327
L_UpperArm  -1.60516 7.76423 16.6155
L_Forearm  -4.03836 30.699 36.3383
L_Hand  -0.213713 0.725579 -3.82597
L_Thigh  3.04158 8.1876 -14.8476
L_Calf  -10.8176 1.88996 -14.3392
L_Foot  -0.143973 7.36687 -7.77787
L_Toe0  -17.595 7.9755 17.9537
R_Thigh  2.78427 1.28091 3.82111
R_Calf  -8.94684 3.65373 11.8511
R_Foot  0.588913 2.22536 0.605405
R_Toe0  -1.78859 -0.272735 -17.3241
343
root  3.37535 29.7832 -41.6966 84.5308 9.41807 84.6127
Spine  -3.33349 3.04038 -3.64508
Spine1  -1.13647 20.1921 7.78997
Neck  3.97569e-016 0 -2.38542e-015
Head  35.0764 -9.95029 5.87828
R_Clavicle  0.323431 -12.1609 1.07425
R_UpperArm  9.96794 4.54231 -1.98014
R_Forearm  19.4907 5.45234 -4.57969
R_Hand  -0.606998 6.67047 -15.356
L_Clavicle  -0.450216 15.9556 -4.03546
L_UpperArm  0.125426 12.4319 21.5845
L_Forearm  -4.01188 29.3932 35.9559
L_Hand  -0.245073 0.909939 -4.2408
L_Thigh  3.84906 8.59804 -10.5068
L_Calf  -11.3583 2.99537 -22.8413
L_Foot  0.261676 11.4234 -8.56413
L_Toe0  -18.3769 3.65485 3.30249
R_Thigh  3.59836 2.72725 0.610196
R_Calf  -8.69322 2.89768 9.51647
R_Foot  0.230489 2.39621 4.97719
R_Toe0  -1.78859 -0.27272 -17.3241
344
root  2.95963 30.0868 -40.2158 85.5698 10.3825 84.6396
Spine  -2.4172 3.96556 -4.3393
Spine1  -0.351212 18.0081 8.1448
Neck  3.97569e-016 0 -2.38542e-015
Head  32.1223 -9.84729 6.20437
R_Clavicle  0.413648 -10.7722 2.06437
R_UpperArm  6.63123 6.6403 -8.11132
R_Forearm  14.2123 6.69346 -5.62635
R_Hand  -0.288221 8.32293 -13.564
L_Clavicle  -0.561368 17.6403 -4.04702
L_UpperArm  -0.285372 17.0837 26.5547
L_Forearm  -6.70964 27.8349 35.4861
L_Hand  -0.264099 0.415618 -4.97846
L_Thigh  4.19163 7.77854 -7.09774
L_Calf  -9.46229 3.35399 -25.7256
L_Foot  1.36204 10.6495 -4.20846
L_Toe0  -7.23624 0.567345 -1.54663
R_Thigh  3.30576 3.24789 -4.02554
R_Calf  -7.44507 3.13417 10.2627
R_Foot  0.195517 3.03799 7.78235
R_Toe0  -1.78859 -0.272705 -17.3241
345
root  2.68157 30.6529 -38.7017 87.6066 10.3347 85.6036
Spine  -1.22352 5.43232 -5.8599
Spine1  0.171528 14.1082 6.56611
Neck  3.97569e-016 0 -2.38542e-015
Head  26.3934 -9.67254 9.47528
R_Clavicle  0.489723 -10.1767 2.76613
R_UpperArm  6.33076 7.86777 -10.32
R_Forearm  12.0234 5.03701 -4.22926
R_Hand  0.0278612 9.84764 -12.0886
L_Clavicle  -0.583637 17.9362 -4.1702
L_UpperArm  -0.796198 21.2972 30.9666
L_Forearm  -9.47264 27.0138 35.0935
L_Hand  -0.273861 0.0266457 -5.55375
L_Thigh  3.84056 5.6311 -3.36207
L_Calf  -6.9786 3.0451 -23.2717
L_Foot  1.76766 8.67113 -1.30784
L_Toe0  -3.79172 0.184237 -3.71918
R_Thigh  3.1757 2.72424 -8.73073
R_Calf  -5.64087 4.18077 13.5878
R_Foot  0.361373 3.77026 8.99591
R_Toe0  -1.78858 -0.27269 -17.324
346
root  2.49021 31.3379 -37.2119 89.9958 9.50152 86.9675
Spine  0.365713 7.30404 -7.48107
Spine1  0.932406 9.03301 3.86048
Neck  3.97569e-016 0 -2.38542e-015
Head  18.5919 -9.3795 14.6657
R_Clavicle  0.49447 -9.48843 2.77356
R_UpperArm  9.15597 8.18084 -9.36546
R_Forearm  12.19 1.18104 -1.00975
R_Hand  0.113293 10.869 -12.0474
L_Clavicle  -0.526002 17.0465 -4.41696
L_UpperArm  -1.26265 24.7533 34.8305
L_Forearm  -10.3762 26.3864 34.5693
L_Hand  -0.270197 0.19866 -5.29611
L_Thigh  2.66811 2.92098 0.215005
L_Calf  -5.21896 2.15035 -16.3506
L_Foot  1.8303 8.69515 -1.08383
L_Toe0  -3.79027 0.223395 -3.241
R_Thigh  3.99972 1.58501 -13.4385
R_Calf  -4.32462 5.81469 18.8778
R_Foot  0.387235 3.84986 9.05998
R_Toe0  -1.78855 -0.272676 -17.3238
347
root  2.32623 31.9722 -35.7652 92.2216 8.73093 87.7647
Spine  2.0764 9.4007 -8.78024
Spine1  2.15864 4.26494 1.942
Neck  3.97569e-016 0 -2.38542e-015
Head  10.7846 -9.04063 19.0624
R_Clavicle  0.464604 -8.2973 2.48643
R_UpperArm  12.4231 8.75619 -7.84995
R_Forearm  12.8574 -4.2594 3.5208
R_Hand  -0.0348225 11.4429 -13.2469
L_Clavicle  -0.45261 15.9955 -4.7694
L_UpperArm  -2.43411 26.8264 38.3841
L_Forearm  -9.95048 25.2421 33.0196
L_Hand  -0.255956 0.970887 -4.38509
L_Thigh  1.46072 1.21737 2.34233
L_Calf  -2.84932 0.711136 -5.68481
L_Foot  1.94817 8.87124 -0.804386
L_Toe0  -1.25754 0.120314 -3.19279
R_Thigh  5.86485 0.919275 -18.6626
R_Calf  -3.65133 7.78793 25.5251
R_Foot  0.219416 3.22654 8.29324
R_Toe0  -1.79017 -0.273181 -17.34
348
root  2.15757 32.4198 -34.3462 94.2012 8.39436 87.8197
Spine  3.60936 11.5802 -9.84894
Spine1  3.48338 0.406859 1.52969
Neck  3.97569e-016 0 -2.38542e-015
Head  4.25881 -8.7149 21.1516
R_Clavicle  0.481368 -7.06074 2.58494
R_UpperArm  12.9662 10.5586 -7.19376
R_Forearm  13.4363 -10.7467 9.04544
R_Hand  -0.178282 11.6568 -14.2223
L_Clavicle  -0.40966 15.418 -4.9665
L_UpperArm  -3.7555 26.9115 41.1889
L_Forearm  -9.2724 23.76 30.5507
L_Hand  -0.229618 2.0942 -3.30748
L_Thigh  0.751466 0.799799 2.80783
L_Calf  0.0614262 -1.15419 7.90655
L_Foot  1.8413 8.23433 -0.649844
L_Toe0  1.10941 0.019705 -6.00478
R_Thigh  7.55599 1.1521 -24.2327
R_Calf  -2.78332 9.89746 32.3913
R_Foot  0.0558491 2.46855 7.06428
R_Toe0  -1.7753 -0.268519 -17.1907
349
root  1.96956 32.6855 -33.0092 95.9071 8.02323 88.0891
Spine  4.95635 13.0465 -10.7234
Spine1  4.62654 -3.05452 1.99604
Neck  3.97569e-016 0 -2.38542e-015
Head  -0.968564 -8.14489 21.4635
R_Clavicle  0.542073 -6.31782 2.9892
R_UpperArm  9.29358 13.3261 -6.86796
R_Forearm  15.5944 -17.1565 15.0385
R_Hand  -0.233742 11.2769 -14.4327
L_Clavicle  -0.397763 15.2346 -4.72988
L_UpperArm  -4.5436 25.2894 42.3653
L_Forearm  -8.9385 22.4396 28.4788
L_Hand  -0.169074 3.05057 -2.10929
L_Thigh  0.0775048 0.355161 2.64477
L_Calf  1.85766 -3.11371 23.0064
L_Foot  1.83334 9.23263 -1.51087
L_Toe0  0.470626 0.0351606 -6.16667
R_Thigh  6.82087 1.55549 -28.98
R_Calf  -0.619098 12.0128 37.9909
R_Foot  -0.000820561 1.92969 5.69548
R_Toe0  -1.69913 -0.244644 -16.4268
